<svg xmlns="http://www.w3.org/2000/svg" width="1200" height="760" viewBox="0 0 1200 760">
  <rect width="1200" height="760" fill="#F5F2EB"/><rect width="225" height="760" fill="#122D48"/><circle cx="52" cy="55" r="25" fill="#C9A84C"/><text x="92" y="53" font-family="Arial" font-size="18" font-weight="700" fill="white">Casa Abierta</text><text x="92" y="75" font-family="Arial" font-size="12" fill="#B7C7D4">Gestión de asistencia</text><g font-family="Arial" font-size="15" fill="#D7E0E7"><text x="38" y="148">▣  Dashboard</text><text x="38" y="202">⌁  Registro</text><text x="38" y="256">♙  Administración</text><text x="38" y="310">▤  Reportes</text></g><rect x="20" y="222" width="185" height="55" rx="10" fill="#FFFFFF18"/><rect x="20" y="222" width="4" height="55" fill="#C9A84C"/>
  <rect x="225" width="975" height="95" fill="#FFFDF8"/><text x="270" y="58" font-family="Georgia" font-size="31" fill="#1A3A5C">Administración</text><text x="270" y="145" font-family="Arial" font-size="12" font-weight="700" fill="#8A6E26">PENDIENTES DE ASIGNACIÓN</text><text x="270" y="188" font-family="Georgia" font-size="30" fill="#1A3A5C">Nuevos miembros</text><text x="270" y="220" font-family="Arial" font-size="15" fill="#68747E">3 personas esperan un líder zonal.</text>
  <rect x="270" y="260" width="860" height="370" rx="20" fill="#FFFDF8" stroke="#DDD8CE"/><g font-family="Arial" font-size="13" font-weight="700" fill="#52616D"><text x="300" y="305">MIEMBRO</text><text x="515" y="305">DOCUMENTO</text><text x="665" y="305">REGISTRO</text><text x="800" y="305">LÍDER ZONAL</text><text x="1040" y="305">ACCIÓN</text></g><line x1="290" y1="325" x2="1110" y2="325" stroke="#DDD8CE"/>
  <g font-family="Arial" font-size="14" fill="#384957"><circle cx="322" cy="372" r="20" fill="#E8EDF1"/><text x="360" y="377" font-weight="700">Natalia Suárez</text><text x="515" y="377">1027••••31</text><text x="665" y="377">24 ago 2026</text><rect x="790" y="347" width="195" height="48" rx="10" fill="white" stroke="#CFC9BD"/><text x="810" y="377" fill="#68747E">Seleccionar líder⌄</text><rect x="1000" y="347" width="112" height="48" rx="10" fill="#D9DEE2"/><text x="1056" y="377" text-anchor="middle" fill="#7A838A">Mover</text><line x1="290" y1="415" x2="1110" y2="415" stroke="#EEEAE1"/>
  <circle cx="322" cy="462" r="20" fill="#E8EDF1"/><text x="360" y="467" font-weight="700">Andrés Vega</text><text x="515" y="467">1019••••08</text><text x="665" y="467">23 ago 2026</text><rect x="790" y="437" width="195" height="48" rx="10" fill="white" stroke="#C9A84C"/><text x="810" y="467">Daniel Rojas · Norte</text><rect x="1000" y="437" width="112" height="48" rx="10" fill="#1A3A5C"/><text x="1056" y="467" text-anchor="middle" font-weight="700" fill="white">Mover</text><line x1="290" y1="505" x2="1110" y2="505" stroke="#EEEAE1"/>
  <circle cx="322" cy="552" r="20" fill="#E8EDF1"/><text x="360" y="557" font-weight="700">Camila Ruiz</text><text x="515" y="557">1004••••55</text><text x="665" y="557">21 ago 2026</text><rect x="790" y="527" width="195" height="48" rx="10" fill="white" stroke="#CFC9BD"/><text x="810" y="557" fill="#68747E">Seleccionar líder⌄</text><rect x="1000" y="527" width="112" height="48" rx="10" fill="#D9DEE2"/><text x="1056" y="557" text-anchor="middle" fill="#7A838A">Mover</text></g>
</svg>
